<svg version="1.2" xmlns="http://www.w3.org/2000/svg" viewBox="0 0 1024 454" width="1024" height="454">
	<defs>
		<linearGradient id="g1" x2="1" gradientUnits="userSpaceOnUse" gradientTransform="matrix(5.637,18.677,-36.068,10.885,423.547,196.637)">
			<stop offset="0" stop-color="#2181cf"/>
			<stop offset="1" stop-color="#46b2e4"/>
		</linearGradient>
		<linearGradient id="g2" x2="1" gradientUnits="userSpaceOnUse" gradientTransform="matrix(-19.723,136.345,-189.846,-27.462,584.528,229.473)">
			<stop offset="0" stop-color="#20378f"/>
			<stop offset="1" stop-color="#2371c5"/>
		</linearGradient>
		<linearGradient id="g3" x2="1" gradientUnits="userSpaceOnUse" gradientTransform="matrix(14.194,24.01,-52.19,30.852,616.343,207.393)">
			<stop offset="0" stop-color="#1f62b9"/>
			<stop offset="1" stop-color="#2e80cd"/>
		</linearGradient>
		<linearGradient id="g4" x2="1" gradientUnits="userSpaceOnUse" gradientTransform="matrix(3.839,33.007,-43.515,5.061,624.838,225.961)">
			<stop offset="0" stop-color="#1a64bc"/>
			<stop offset="1" stop-color="#279fe2"/>
		</linearGradient>
		<linearGradient id="g5" x2="1" gradientUnits="userSpaceOnUse" gradientTransform="matrix(-1.167,75.067,-71.023,-1.104,622.605,92.276)">
			<stop offset="0" stop-color="#148bd8"/>
			<stop offset="1" stop-color="#3ebce0"/>
		</linearGradient>
		<linearGradient id="g6" x2="1" gradientUnits="userSpaceOnUse" gradientTransform="matrix(-16.718,-47.632,26.482,-9.295,601.36,215.933)">
			<stop offset="0" stop-color="#69cbd7"/>
			<stop offset="1" stop-color="#26a7db"/>
		</linearGradient>
		<linearGradient id="g7" x2="1" gradientUnits="userSpaceOnUse" gradientTransform="matrix(-5.475,28.448,-19.908,-3.831,597.049,212.355)">
			<stop offset="0" stop-color="#2a98d1"/>
			<stop offset="1" stop-color="#4fc2de"/>
		</linearGradient>
		<linearGradient id="g8" x2="1" gradientUnits="userSpaceOnUse" gradientTransform="matrix(6.124,45.794,-42.77,5.719,142.547,197.034)">
			<stop offset="0" stop-color="#2778cb"/>
			<stop offset="1" stop-color="#2d9edb"/>
		</linearGradient>
		<linearGradient id="g9" x2="1" gradientUnits="userSpaceOnUse" gradientTransform="matrix(-7.205,7.242,-12.218,-12.155,167.358,241.885)">
			<stop offset="0" stop-color="#1f59b5"/>
			<stop offset="1" stop-color="#2373cb"/>
		</linearGradient>
		<linearGradient id="g10" x2="1" gradientUnits="userSpaceOnUse" gradientTransform="matrix(-0.02,52.527,-84.502,-0.032,154.012,155.99)">
			<stop offset="0" stop-color="#1b7ccf"/>
			<stop offset="1" stop-color="#4bc9e1"/>
		</linearGradient>
		<linearGradient id="g11" x2="1" gradientUnits="userSpaceOnUse" gradientTransform="matrix(.748,49.834,-53.094,.797,274.088,180.059)">
			<stop offset="0" stop-color="#0c72cc"/>
			<stop offset="1" stop-color="#44bfe3"/>
		</linearGradient>
		<linearGradient id="g12" x2="1" gradientUnits="userSpaceOnUse" gradientTransform="matrix(-22.552,-42.017,51.716,-27.759,355.337,230.816)">
			<stop offset="0" stop-color="#40a9d8"/>
			<stop offset="1" stop-color="#118fdc"/>
		</linearGradient>
		<linearGradient id="g13" x2="1" gradientUnits="userSpaceOnUse" gradientTransform="matrix(-0.303,37.502,-42.21,-0.341,362.162,205.981)">
			<stop offset="0" stop-color="#1c73c9"/>
			<stop offset="1" stop-color="#37aee0"/>
		</linearGradient>
	</defs>
	<style>
		.s0 { fill: #ffffff } 
		.s1 { fill: #1f7bc9 } 
		.s2 { fill: #1f4296 } 
		.s3 { fill: #1f62ba } 
		.s4 { fill: #42b8d8 } 
		.s5 { fill: url(#g1) } 
		.s6 { fill: #32a9da } 
		.s7 { fill: #1e53ad } 
		.s8 { fill: url(#g2) } 
		.s9 { fill: url(#g3) } 
		.s10 { fill: url(#g4) } 
		.s11 { fill: url(#g5) } 
		.s12 { fill: url(#g6) } 
		.s13 { fill: url(#g7) } 
		.s14 { fill: url(#g8) } 
		.s15 { fill: url(#g9) } 
		.s16 { fill: url(#g10) } 
		.s17 { fill: url(#g11) } 
		.s18 { fill: #2685d1 } 
		.s19 { fill: url(#g12) } 
		.s20 { fill: url(#g13) } 
	</style>
	<path class="s0" d="m0-248h1024v1024h-1024z"/>
	<path class="s1" d="m512.23 216.22c3.52-1.76 5.6-3.37 8.57-5.83 16.02-13.21 31.23-26.63 45.01-42.22 0.82-0.92 1.89-1.1 3.04-1.24-1.11 3.17-2.53 7.67-3.9 10.59-5.07 14.35-14.23 29.9-21.89 42.94-10.08 14.58-12.27 13.62-14.46 31.94-3.12-1.77-4.78-2.14-8.22-3.14-11.2 2.91-18.75 12.48-26.99 13.78-20.46 3.24-47.7-6.98-67.08 4.49-9.64 6.63-12.34 9.3-23.25 12.97 1.99-6.88 3.65-13.41 4.82-20.49-6.53 6.38-11.17 8.92-19.37 12.61-19.27 8.77-40.23 7.19-57.31-5.33q-8.29 3.67-16.93 6.44c-19.58 6.15-37.26 6.2-55.61-3.33-25.78 12.45-59.85 10.62-75.61-16.2 8.6 1.23 16.32 9.8 25.15 7.62 1.15-0.28 11.78 4.36 13.77 4 21.46 2.01 39.77-7.03 61.68-9.93 8.91 0.88 11.33 1 20.28-0.16 9.55-2.23 13.91-1.6 11.36-12.81 2.55 0.28 4.42 2.1 6.43 3.66 7.42 0.04 7.64-1.43 14.53-3.9 3.83 3.18 16.92 1.94 25.43 5.51-1.78 1.53-6.37 4.57-7.2 5.99 3.88 3.43 15.64 2.29 20.52 1.11 17.18-4.17 26.96-18.56 35.57-32.83 2.74-8.85 7.69-16.65 10.08-25.51 2.45-9.87 3.71-17.83 14.73-20.63 9.2 2.27 10.24 7.33 10.13 15.91 16.52-6.89 32.17-10.18 47.64 1.29 5.12 4.54 8.7 8.85 10.67 15.6 3.41 9.64 2.97 13.87 1.72 24.04 5.61-6.84 5.49-8.03 6.69-16.94z"/>
	<path class="s2" d="m409.89 246.08c-0.17 2.5-1.69 3.45-2.91 5.77-2.59 2.03-6.82 5.58-9.42 7.3-3.48 4.9-10.16 6.88-14.07 11.05 2.11-0.39 2.2-0.75 3.92-0.13 0.66 1.18 0.74 1.26 1.1 2.55-19.27 8.77-40.23 7.19-57.3-5.33q-8.3 3.67-16.94 6.44c-19.58 6.15-37.26 6.2-55.61-3.33-25.78 12.45-59.85 10.62-75.61-16.2 8.61 1.23 16.32 9.8 25.15 7.62 1.15-0.28 11.78 4.36 13.77 4 21.46 2.01 39.77-7.03 61.68-9.93 8.91 0.88 11.33 1 20.28-0.16 13.7 3.07 26.11 5.07 39.5 9.64 13.42 4.59 31.88 3.35 43.92-4.38 7.49-4.81 14.52-10.26 22.54-14.91z"/>
	<path class="s3" d="m383.49 270.2c-1.82 0.71-4.91 1.5-6.46 0.04 1.21-2.42 17.15-9.82 20.53-11.09-3.48 4.9-10.16 6.88-14.07 11.05z"/>
	<path class="s0" d="m436.87 236.94c7.33-15.74 18.8-28.81 37.29-29.06 8.17 5.41 8.58 6.65 10.56 16.37l0.11 0.51c-0.37 28.81-31.66 37.62-54.22 26.85 1.42-3.43 3.09-7.85 4.62-11.15z"/>
	<path class="s4" d="m435.38 176.32c9.2 2.27 10.24 7.33 10.13 15.91 16.52-6.89 32.17-10.18 47.64 1.29-3.26 3.12-3.72 7.85-7.57 9.2-24.7-1.35-44.06 2.89-65.61 14.64-2.17 1.53-6.94 4.1-9.4 5.1 2.74-8.85 7.69-16.65 10.08-25.51 2.45-9.87 3.72-17.83 14.73-20.63z"/>
	<path class="s5" d="m445.02 192.83c-3.2 1.75-6.78 3.06-10.27 4.14-3.72 4.06-4.11 7.29-7.33 11.24-1.78 2.19-7.9 4.17-8.07 8l0.62 1.15c-2.17 1.53-6.94 4.1-9.4 5.1 2.74-8.85 7.69-16.65 10.08-25.51 8.69-2.48 15.39-3.83 24.37-4.12z"/>
	<path class="s4" d="m523.84 214.66c-0.48-0.29-0.15-0.05-0.81-0.91l0.4-0.8c6.45-4.19 6.96-3.75 13.5-9.54q6.4-5.67 12.14-12.02c4.44-4.86 9.55-11.89 15.88-13.87-5.07 14.35-14.23 29.9-21.89 42.94-1.11-0.93-1.17-0.95-2.48-1.6-6.26-3.28-9.52-4.22-16.74-4.2z"/>
	<path class="s6" d="m474.16 207.88c6.82-1.21 22.94 1.79 24.92 9.28-3.94 1.4-9.88 4.21-13.23 6.7l-1.02 0.9-0.11-0.51c-1.98-9.72-2.39-10.96-10.56-16.37z"/>
	<path class="s7" d="m409.89 246.08c4.59-3.81 21.6-11.18 26.98-9.14l-1.64 3.52c-16.76 2.68-15.87 6.84-28.25 11.39 1.22-2.32 2.74-3.27 2.91-5.77z"/>
	<path class="s6" d="m485.58 202.72c3.85-1.35 4.31-6.08 7.57-9.2 5.12 4.54 8.7 8.85 10.67 15.6-6.84-3.56-10.61-5.3-18.24-6.4z"/>
	<path class="s3" d="m499.08 217.16c-0.1 5.51-9.49 8.49-13.23 6.7 3.35-2.49 9.29-5.3 13.23-6.7z"/>
	<path class="s2" d="m523.84 214.66c7.22-0.02 10.48 0.92 16.74 4.2-1.81 0.16-3.28-0.38-5.03-0.82-8.97-2.25-10.61-2.39-19.03 0.88q3.64-2.16 7.32-4.26z"/>
	<path class="s8" d="m628.55 201.34c2.81-3.23 10.87-8.87 15.34-9.84-4.34 11.16-9.88 23.74-16.48 33.76q-5.34 9.53-11.27 18.7c12.03 11.82 19.39 14.8 34.83 5.72-0.79 1.66-1.73 2.89-1.51 4.46 1.09 1.02 1.56 1.04 2.98 1.53 3.76 0.19 12.76-1.98 16.92-2.66 5.04-0.83 7.94-1.06 13.04-1.36 10.96 5.26 15.67 6.04 26.99 0.79 3.23 0.65 6.54 0.8 9.82 0.45 2.39 0.24 7.62 1.44 9.79 2.39 2.31 0.86 2.91 1.02 3.87 3.43-21.73 23.11-46.3 23.54-70.62 3.97-23.22 18.97-39.55 17.85-61.56-2.18-16.79 16.19-28.7 24.24-50.53 32.45 5.02 18.74 8.55 31.93 5.17 51.45-2.89 16.24-12.91 48.25-34.52 48.33-22.9 0.08-24.31-35.48-24.33-52.04l0.03-4.84c-0.22-12.94 2.9-33.72 5.58-46.42l1.65-7.53q-0.62-0.87-1.18-1.77c-4.22-6.66-3.35-10.01-1.69-17.41-19.06 10.6-36.73 17.48-58.78 12.27-4.72-1.12-11-4.87-14.79-5.44l-0.99-2.02c19.38-11.47 46.62-1.25 67.08-4.49 8.24-1.3 15.79-10.87 26.99-13.78 3.44 1 5.1 1.37 8.22 3.14-0.61 3.79-1.14 6.58-2.06 10.28 5.85 4.15 8.16 6.41 13.08 11.71 21.06-6.45 35.29-16.75 50.41-32.05 2.57-2.54 5.67-6.09 8.16-8.8 1.48-0.79 2.31-1.48 3.93-1.23 0.99 0.64 0.71 0.3 1.26 1.26 1.86-2.26 4.47-8.83 3.69-11.69l-0.06-0.19c2.19-1.29 2.82-2.88 4.18-5.12 4.62-2.85 12.68-11.22 16.7-15.25z"/>
	<path class="s2" d="m496.48 340.69c5.77 3.21 4.78 9.55 12.91 13.33l0.92-0.81c2.96 0.74 6.51 0.55 7.92-2.59 0.16 2.26 0.3 4.39 0.36 6.66 1.28 6.58 1.69 9.24 4.77 15.06 2.47-3.56 4.31-6.4 6.5-10.13 19.31-1.69 14.47-3.92 22.73-17.43 1.62-0.9 0.75-0.72 2.74-0.38-2.89 16.24-12.91 48.25-34.53 48.33-22.89 0.08-24.3-35.48-24.32-52.04z"/>
	<path class="s1" d="m518.23 350.62c0.16 2.26 0.3 4.39 0.36 6.66-3.49-0.94-5.84-1.91-9.2-3.26l0.92-0.81c2.96 0.74 6.51 0.55 7.92-2.59z"/>
	<path class="s2" d="m502.09 289.43c3.67-0.6 14.91 0.36 19.2 0.57-2.03 18.34-4.39 42.08-3.06 60.62-1.41 3.14-4.96 3.33-7.92 2.59l-0.92 0.81c-8.13-3.78-7.14-10.12-12.91-13.33l0.03-4.84c-0.22-12.94 2.9-33.72 5.58-46.42z"/>
	<path class="s7" d="m496.51 335.85c5.24 4.75 4.73 10.37 13.8 17.36l-0.92 0.81c-8.13-3.78-7.14-10.12-12.91-13.33z"/>
	<path class="s0" d="m521.29 290c0.51-2.03 0.14-2.02 1.43-3.12 2.6 0.55 3.46 2.01 4.97 4.32 10.32 15.85 11.24 37.66 7.2 55.65-1.17 5.27-2.85 10.42-5.03 15.36-2.19 3.73-4.03 6.57-6.5 10.13-3.08-5.82-3.49-8.48-4.77-15.06-0.06-2.27-0.2-4.4-0.36-6.66-1.33-18.54 1.03-42.28 3.06-60.62z"/>
	<path class="s9" d="m628.55 201.34c2.81-3.23 10.87-8.87 15.34-9.84-4.34 11.16-9.88 23.74-16.48 33.76-5.39 0.36-14.03 7.02-16.51 11.7-2.25 3.29-3.82 5.77-5.21 9.57l-0.27 0.72-1.38 0.08 0.15-1.34c-6.69-3.32-3.4-6.99-0.81-12.42 1.86-2.26 4.47-8.82 3.69-11.69l-0.06-0.19c2.19-1.29 2.82-2.88 4.18-5.12 4.62-2.85 12.68-11.22 16.7-15.25z"/>
	<path class="s7" d="m627.89 201.32l0.66 0.02c0.35 4.79-9.73 12.3-12.48 16.62-5.07 8-9.91 18.85-11.88 28.03-6.69-3.32-3.4-6.99-0.81-12.42 1.86-2.26 4.47-8.82 3.69-11.69l-0.06-0.19c2.19-1.29 2.82-2.88 4.18-5.12 4.62-2.85 12.68-11.22 16.7-15.25z"/>
	<path class="s10" d="m610.9 236.96c2.48-4.68 11.12-11.34 16.51-11.7q-5.34 9.53-11.27 18.7c12.03 11.82 19.39 14.8 34.83 5.72-0.79 1.66-1.73 2.89-1.51 4.46 1.09 1.02 1.56 1.04 2.98 1.53q-0.49 0.18-0.99 0.34c-16.18 5.16-25.52 3.74-40.38-3.88l-5.65-4.88 0.27-0.72c1.39-3.8 2.96-6.28 5.21-9.57z"/>
	<path class="s3" d="m610.9 236.96c-0.12 3.22-2.63 7.71-5.21 9.57 1.39-3.8 2.96-6.28 5.21-9.57z"/>
	<path class="s7" d="m604.04 247.33l1.38-0.08 5.65 4.88c-1.19 2.89-0.84 6.31-4.89 6.87-3.31-2.04-2.35-8.36-2.14-11.67z"/>
	<path class="s2" d="m719.21 252.89c2.39 0.25 7.62 1.44 9.79 2.39-2.43 1.01-8.55 1.25-10.8-0.12-0.07-1.58-0.26-0.81 1.01-2.27z"/>
	<path class="s0" d="m585.18 164.19c5.03-21.6 12.44-47.5 29.13-63.15 5.73-5.37 14.25-9.69 22.3-9.1 5.73 0.37 11.04 3.12 14.64 7.57 10.41 12.75 6.81 35.35 5.04 50.5l-1 3.97c-2.39 9.88-5.14 21.13-8.9 30.56l-2.5 6.96c-4.47 0.97-12.53 6.61-15.34 9.84l-0.66-0.02c-4.02 4.03-12.08 12.4-16.7 15.25-1.36 2.24-1.99 3.83-4.18 5.12l0.06 0.19c0.78 2.87-1.83 9.43-3.69 11.69-0.55-0.96-0.27-0.62-1.26-1.26-1.62-0.25-2.45 0.44-3.93 1.23-2.49 2.71-5.59 6.26-8.16 8.8-3.5-5.63-4.92-12.1-6.35-18.47-3.21-24.42-2.52-32.32 1.07-56.51z"/>
	<path class="s11" d="m585.18 164.19c5.03-21.6 12.44-47.5 29.13-63.15 5.73-5.37 14.25-9.69 22.3-9.1 5.73 0.37 11.04 3.12 14.64 7.57 10.41 12.75 6.81 35.35 5.04 50.5l-1 3.97c-7.11 1.26-8.24 2.3-13.31 7.66l-1.56-1.1-7.79 7.44c-1.1 0.52-1.26 0.71-2.43 0.95 2.68-10.19 5.32-21.04 6.88-31.51 0.85-5.77 2.74-18.13-1.13-23.21-0.65-0.86-1.66-1.3-2.74-1.42-2.29-0.27-4.74 1.63-6.27 3.06-7.95 7.45-20.56 38.46-20.91 48.66l-0.75 1.97c-7.45-0.09-13.09 0.34-20.53 0.88z"/>
	<path class="s1" d="m585.18 164.19c3.98-0.75 18.27-2.69 20.85 0.32l-0.75 1.97c-7.45-0.09-13.09 0.34-20.53 0.88z"/>
	<path class="s1" d="m640.41 160.54c4.56-5.47 8.83-8.84 15.88-10.53l-1 3.97c-7.11 1.26-8.24 2.3-13.31 7.66z"/>
	<path class="s12" d="m584.75 167.36c7.44-0.54 13.08-0.97 20.53-0.88-2.24 10.45-3.23 16.83-2.68 27.82 0.19 3.95 1 13.44 0.75 16.94 0.77 2.48 2.23 9.07 3.66 10.45l0.06 0.19c0.78 2.86-1.83 9.42-3.69 11.69-0.55-0.96-0.27-0.62-1.26-1.26-1.62-0.26-2.45 0.44-3.93 1.23-2.49 2.71-5.59 6.26-8.16 8.8-3.5-5.63-4.92-12.1-6.35-18.47-3.21-24.42-2.52-32.32 1.07-56.52z"/>
	<path class="s13" d="m603.35 211.24c0.77 2.48 2.23 9.07 3.66 10.45l0.06 0.19c0.78 2.86-1.83 9.42-3.69 11.69-0.55-0.96-0.27-0.62-1.26-1.26-1.62-0.26-2.45 0.44-3.93 1.23-2.49 2.71-5.59 6.26-8.16 8.8-3.5-5.63-4.92-12.1-6.35-18.47l0.82-0.52c7.18-3.56 12.22-8.76 18.61-11.56z"/>
	<path class="s2" d="m607.07 221.88c0.78 2.87-1.83 9.43-3.69 11.69-0.55-0.96-0.27-0.62-1.26-1.26-1.62-0.25-2.45 0.44-3.93 1.23 2.3-3.52 5.64-9.07 8.88-11.66z"/>
	<path class="s3" d="m584.5 223.35c7.18-3.56 12.22-8.76 18.61-11.56-2.72 4.07-13.47 11.86-18.61 11.56z"/>
	<path class="s4" d="m641.98 161.64c5.07-5.36 6.2-6.4 13.31-7.66-2.39 9.88-5.14 21.13-8.9 30.56l-2.5 6.96c-4.47 0.97-12.53 6.61-15.34 9.84l-0.66-0.02c-4.02 4.03-12.08 12.4-16.7 15.26 1.26-4.2 5.41-13.33 7.21-17.59 4.33-10.22 8.14-19.57 11.8-30.06 1.17-0.24 1.32-0.43 2.43-0.95l7.78-7.44z"/>
	<path class="s6" d="m627.89 201.32c0.02-0.37 0.06-1.57 0.16-1.88 1.71-5.15 12.88-16.04 18.34-14.9l-2.5 6.96c-4.47 0.97-12.53 6.61-15.34 9.84z"/>
	<path class="s7" d="m640.41 160.54l1.57 1.1c-2.55 2.85-5.16 6.76-9.35 6.34z"/>
	<path class="s0" d="m733.06 190.75c9.2-5.9 21.43-15.6 33.04-12.66 17.86 4.52 18.52 28.54 18.39 43.11-4.86-4.54-19.73-24.13-25.83-22.24-1.65 0.77-10.05 8.3-13.23 10.4 1 5.55 1.58 12.44 0.88 18.03-2.62 15.04-4.25 19.59-13.44 31.32-0.96-2.41-1.56-2.57-3.87-3.43-2.17-0.95-7.4-2.15-9.79-2.39-3.28 0.35-6.59 0.2-9.82-0.45-11.32 5.25-16.03 4.47-26.99-0.79-5.1 0.3-8 0.53-13.04 1.36-4.16 0.68-13.16 2.85-16.92 2.66-1.42-0.49-1.89-0.51-2.98-1.53-0.22-1.57 0.72-2.8 1.51-4.46 0.16-0.31 2.43-3.05 2.79-3.49-2.93-18.23-2.12-25.72 7.4-41.21 8.59-12.83 28.12-22.59 43.58-18.77 4.25-5.1 6.51-7.3 13.21-8.82 6 1.37 8.9 3.05 12.37 8.57q1.47 2.34 2.74 4.79z"/>
	<path class="s1" d="m733.06 190.75c9.2-5.9 21.43-15.6 33.04-12.66 17.86 4.52 18.52 28.54 18.39 43.11-4.86-4.54-19.73-24.13-25.83-22.24-1.65 0.77-10.05 8.3-13.23 10.4 1 5.55 1.58 12.44 0.88 18.03-2.62 15.04-4.25 19.59-13.44 31.32-0.96-2.41-1.56-2.57-3.87-3.43-2.17-0.95-7.4-2.15-9.79-2.39-3.28 0.35-6.59 0.2-9.82-0.45 3.93-2.98 7.45-6.74 10.9-10.28 3.01-6.97 8.64-18.46 2.08-24.78l-2.9-1.18c-2.82-1.62-5.86-3.88-8.11-6.23l-3.49-2.18 0.26-0.48c-0.42-4.1-4.74-8.33-7.59-11.04 1.74-1.33 1.36-2.06 1.62-4.16 0.86-2.15 1.56-3.82 2.58-5.9 4.25-5.1 6.51-7.3 13.21-8.82 6 1.37 8.9 3.05 12.37 8.57q1.47 2.34 2.74 4.79z"/>
	<path class="s2" d="m720.29 242.16c6.82-3.61 19.6-13.95 26.02-14.77-2.62 15.04-4.25 19.59-13.44 31.32-0.96-2.41-1.56-2.57-3.87-3.43-2.17-0.95-7.4-2.15-9.79-2.39-3.28 0.35-6.59 0.2-9.82-0.45 3.93-2.98 7.45-6.74 10.9-10.28z"/>
	<path class="s6" d="m700.54 196.27c1.74-1.33 1.36-2.06 1.62-4.16 0.01 6.22 6.91 9.09 9.2 17.86l-3.49-2.18 0.26-0.48c-0.42-4.1-4.74-8.33-7.59-11.04z"/>
	<path class="s7" d="m719.47 216.2c1.5-1.82 2.47-3.38 4.7-3.78 0.85 1.8-0.74 3.49-1.8 4.96z"/>
	<path class="s7" d="m740.78 200.63c1.79-0.18 6.97-0.87 7.89 0.91-1.74 1.16-3.42 1.09-5.54 1.31-4.15 0.09-6.1-0.04-10.24-0.51 2.75-0.72 5.1-1.18 7.89-1.71z"/>
	<path class="s7" d="m731.8 210.98l0.14 0.08 0.14 0.67c-1.3 2.27-2.66 3.34-4.55 5.14l-0.2-0.16-0.02-0.78c1.73-2.3 2.38-2.99 4.49-4.95z"/>
	<path class="s1" d="m661.15 204.98c8.6-12.83 28.13-22.59 43.59-18.77-1.02 2.08-1.72 3.75-2.58 5.9-0.26 2.1 0.12 2.83-1.62 4.16 2.85 2.71 7.17 6.94 7.59 11.04l-0.26 0.48c-3.76-1-6.4-1.66-10.4-0.91-10.57 2-20.11 10.64-22.69 21.19-1.56 6.23-0.46 12.83 3.03 18.22 1.29 2.03 2.83 3.75 4.59 5.36-5.1 0.3-8 0.53-13.04 1.36-4.16 0.69-13.16 2.85-16.92 2.66-1.42-0.49-1.89-0.51-2.98-1.53-0.22-1.57 0.72-2.8 1.51-4.46 0.16-0.31 2.43-3.05 2.79-3.49-2.93-18.23-2.12-25.72 7.39-41.21z"/>
	<path class="s4" d="m661.15 204.98c8.6-12.83 28.13-22.59 43.59-18.77-1.02 2.08-1.72 3.75-2.58 5.9-0.26 2.1 0.12 2.83-1.62 4.16-11.66-4.19-17.61 2.9-27.24 7.32-4.21 1.93-7.68 1.68-12.15 1.39z"/>
	<path class="s0" d="m667.42 207.51q0.16 0.5 0.31 1c-1.76 5.17-4.45 8.11-5.91 13.24-1.13 3.95-0.49 10.52-2.59 13.54-3.49-7.7 1.26-22.85 8.19-27.78z"/>
	<path class="s14" d="m180.89 152.93c7.07 0.42 13.08 4.14 18.59 8.29l0.78-0.2q-2.4 13.41-4.43 26.87c-0.53 3.77-1.43 12.66-2.16 16.04l-0.23 0.77c0.06 13.79-0.02 20.74 4.43 34.2-7.12-3.35-21.26-18.01-30.58-23.44-2.77 8.09-4.42 13.62-8.51 21.11 3.73 1.4 12.84 8.67 16.15 11.59l-1.52 2.85c-7.93 13.31-17.44 22.96-32.83 26.92-12.29 3.16-27.67 1.2-35.95-9.31 2.01-10.55 11.04-10.68 19.77-11.83q-0.98-0.87-1.91-1.79c-4.44-4.43-4.08-9.35-4.08-15.12l0.52-2.35c-5.03-4.44-15.06-6.52-21.46-7.63 2.36-5.6 4.64-11.49 8.15-16.46 0.52-0.89 1.4-2.09 2.01-2.98 4.02-7.24 12.27-14.24 19.29-18.43 16.44-9.82 28.88-10.05 46.85-5.79 2.59-10.54 4.79-22.03 7.03-32.71z"/>
	<path class="s0" d="m118.93 237.53q-0.01-0.28-0.01-0.56c3.24-16.68 21.52-32.09 38.74-30.71 6.1 0.49 10.53 3.2 9.63 9.2-2.77 8.1-4.42 13.62-8.51 21.11 3.73 1.4 12.83 8.68 16.15 11.59l-1.52 2.85c-7.93 13.31-17.44 22.96-32.83 26.92-12.29 3.16-27.67 1.2-35.95-9.31 2.01-10.55 11.04-10.68 19.77-11.83q-0.98-0.87-1.91-1.79c-4.44-4.43-4.08-9.35-4.08-15.12z"/>
	<path class="s2" d="m158.78 236.57c3.73 1.4 12.84 8.68 16.15 11.59l-1.52 2.85c-7.93 13.31-17.44 22.96-32.83 26.92-12.29 3.16-27.67 1.2-35.95-9.31 2.01-10.55 11.04-10.68 19.77-11.83 14.27 3.94 21.12-1.67 29.62-12.26z"/>
	<path class="s15" d="m158.78 236.57c3.73 1.4 12.84 8.68 16.15 11.59l-1.52 2.85c-0.75-0.75-16.54-5.28-19.39-6.48z"/>
	<path class="s16" d="m180.89 152.93c7.07 0.42 13.08 4.14 18.59 8.29l0.78-0.2q-2.4 13.41-4.43 26.87c-0.53 3.77-1.43 12.66-2.16 16.04-1.47-3.56-7.58-6.25-10.96-7.81-14.15-6.52-31.23-4.01-45.18 2-11.71 5.06-16.98 8.84-29.9 12.34 4.02-7.24 12.27-14.24 19.29-18.43 16.44-9.82 28.88-10.05 46.85-5.79 2.59-10.54 4.79-22.03 7.03-32.71z"/>
	<path class="s3" d="m180.89 152.93c7.07 0.42 13.08 4.14 18.59 8.29-4.37 2.26-15.83-3.68-18.68-7.69z"/>
	<path class="s3" d="m107.63 210.46c12.92-3.5 18.19-7.28 29.9-12.34 13.95-6.01 31.03-8.52 45.18-2 3.38 1.56 9.49 4.25 10.95 7.81l-0.22 0.77c-6.57 0.2-16.32-8.6-23.7-10.08-10.49-2.12-18.33 1.65-27.91 5.14-8.15 2.96-28.24 16.47-36.21 13.68 0.52-0.89 1.4-2.09 2.01-2.98z"/>
	<path class="s1" d="m240.67 214.39c1.39-3.62 2.69-6.83 4.34-10.33 7.96-16.85 27.97-29.96 46.73-22.67 6.36 2.49 11.48 7.38 14.24 13.63 4.61 10.29 2.06 20.91-1.94 30.91q-1.12 2.86-2.58 5.56c-2.02 3.37-3.52 5.32-5.97 8.44-3.47 3.86-10.62 9.89-12.35 13.86 0.12 1.36-0.06 0.93 0.51 2.1-21.91 2.9-40.22 11.94-61.68 9.93-1.99 0.36-12.62-4.28-13.77-3.99-8.83 2.17-16.54-6.4-25.15-7.63-3.38-4.6-3.95-8.18-5.46-13.59-0.78 2.44-1.79 5.11-2.66 7.55-3.31-2.91-12.42-10.19-16.15-11.59 4.09-7.49 5.74-13.01 8.51-21.11 9.32 5.43 23.46 20.09 30.58 23.44 13.86 20.16 25 18.99 46.72 14.72-6.42-11.67-6.36-21.31-4.95-34.14z"/>
	<path class="s17" d="m240.67 214.39c1.39-3.62 2.69-6.83 4.34-10.33 7.96-16.85 27.97-29.96 46.73-22.67 6.36 2.49 11.48 7.38 14.24 13.63 4.61 10.29 2.06 20.91-1.94 30.91q-1.12 2.86-2.58 5.56c-2.02 3.37-3.52 5.32-5.97 8.44-4.92-3.55-14.51-5.73-20.4-7.06-4.08 4.54-6.45 6.95-11.43 10.44-2.61-6.97-3.01-10.56-2.62-17.98l0.88-3.87c-3.49-2.26-6.59-3.54-10.41-5.16l-2.87-1.23c-2.67-0.3-5.29-0.48-7.97-0.68z"/>
	<path class="s0" d="m261.92 221.46c2.49-22.85 32.8-28.79 22.95-7.27l-0.73 2.7c-3.14 6.74-4.78 9.97-9.05 15.98-4.08 4.54-6.45 6.95-11.43 10.44-2.61-6.97-3.01-10.56-2.62-17.98z"/>
	<path class="s18" d="m275.09 232.87c4.27-6.01 5.91-9.24 9.05-15.98 4.2 2.74 12.13 14.5 16.74 14.13l0.58 0.47c-2.02 3.37-3.52 5.32-5.97 8.44-4.92-3.55-14.51-5.73-20.4-7.06z"/>
	<path class="s0" d="m248.64 215.07c3.18-11.04 8.57-20.37 18.89-25.97 11.26-6.1 19.22-4.82 28.34 3.51-9.2-2.89-17.27-6.31-26.4-1.15-10.81 6.1-13.92 14.33-17.96 24.84z"/>
	<path class="s3" d="m284.87 214.19c5.62 5.01 12.08 10.38 16.01 16.83-4.61 0.37-12.55-11.39-16.74-14.13z"/>
	<path class="s3" d="m240.67 214.39c2.68 0.2 5.3 0.38 7.97 0.68l2.87 1.23c3.82 1.62 6.92 2.9 10.41 5.16l-0.88 3.87c-1.76-0.47-4.86-1.81-6.91-2.46-5.1-1.61-9.32-2.38-14.49-3.39z"/>
	<path class="s7" d="m166.01 222.97c11.97 0.86 22.39 22.1 31.02 28.92 1.92 1.51 4.79 4.48 6.39 6.33-6.91-1.24-19.91-21.84-25.55-26.99-3.61-3.3-8.61-5.24-11.86-8.26z"/>
	<path class="s2" d="m800.67 215.92c0.71-4.16 2.32-8.52 4.39-12.24 3.13-5.63 10.03-9.8 15.97-5.4 5.29 3.9 6.37 11.2 7.29 17.33l0.38 1.31c1.19 6.25 2.11 13.12 3.52 19.22 1.21 6.1 2.98 12.45 6.16 17.83 8.83-13.33 10.98-19.05 16.11-33.83 2.65-0.78 5.14-1.13 8.03-2.08 4.36-1.42 10.68-5.32 14.84-5.63-2.05 12.94-7.34 27.24-13.2 38.86-5.64 11.21-18.74 34-34.4 24.86-11.8-6.89-14.74-24.12-18.1-36.33-4.38 12.98-12.73 36.76-28.83 38.66-2.71 0.32-6.82-0.52-8.84-2.51-9.87-9.7-9.15-26.66-10.68-39.49-0.84-7.8-1.68-15.28-2.31-22.86-0.83-3.02-1.41-10.45-2.34-14.66 6.1-1.89 20.97 17.7 25.83 22.25 0.23 3.02 0.53 6.03 0.51 9.06q0.13 10.68 0.76 21.34c2.79-4.98 7.09-15.48 8.82-21.21l3.56-8.98 1.42-3.03z"/>
	<path class="s1" d="m800.67 215.92c0.71-4.16 2.32-8.52 4.39-12.24 3.13-5.63 10.03-9.8 15.97-5.4 5.29 3.9 6.37 11.2 7.29 17.33l0.38 1.31c1.19 6.25 2.11 13.12 3.52 19.22-15.41 5.63-24.63 4.27-37.64-5.74l3.56-8.98 1.42-3.03z"/>
	<path class="s4" d="m800.67 215.92c0.71-4.16 2.32-8.52 4.39-12.24 3.13-5.63 10.03-9.8 15.97-5.4 5.29 3.9 6.37 11.2 7.29 17.33-1.2-0.84-2.4-2.07-3.48-3.1l-0.52 0.15c-7.97-3.93-12.52-2.65-20.38 0.15z"/>
	<path class="s6" d="m815.36 204.02c3.97 1.8 5.33 2.76 8.47 6.04 0.66 1.26 0.72 1.11 1.01 2.45l-0.52 0.15c-7.97-3.93-12.52-2.65-20.38 0.15l1.75-3.54z"/>
	<path class="s0" d="m805.69 209.27c3.31-10.79 19.35-8.19 18.14 0.79-3.14-3.28-4.5-4.24-8.47-6.04z"/>
	<path class="s3" d="m803.94 212.81c7.86-2.8 12.41-4.08 20.38-0.15l0.52-0.15c1.08 1.03 2.28 2.26 3.48 3.1l0.38 1.31c-6.5 0.06-13.58-1.05-19.71 0.21-4.15 0.85-6.4 3.91-10.85 4.29l1.42-3.03 1.11-2.47z"/>
	<path class="s7" d="m803.94 212.81c7.86-2.8 12.41-4.08 20.38-0.15-2.55 1.87-9.15-0.28-12.97 0.87-3.91 1.19-6.49 4.89-10.39 6.13l-0.9-0.24-0.5-1.03 1.11-2.47z"/>
	<path class="s7" d="m758.66 198.96c6.1-1.89 20.97 17.7 25.83 22.24 0.23 3.03 0.53 6.04 0.51 9.07-1.57-0.41-2.95-0.79-4.43-1.64-4.55-2.61-12.7-21.98-18.69-19.59-1.15 1.52-0.9 2.63-0.88 4.58-0.83-3.02-1.41-10.45-2.34-14.66z"/>
	<path class="s6" d="m512.23 216.22c5.63-24.53 8.34-50.67 15.68-75.07 5.32-16.46 10.49-38.19 26.19-47.73 7.9-4.81 19.22-0.12 22.23 8.4 7.24 20.45 0.09 45.73-7.48 65.11-1.15 0.14-2.22 0.32-3.04 1.24-13.78 15.59-28.99 29.01-45.01 42.22-2.97 2.46-5.05 4.07-8.57 5.83z"/>
	<path class="s0" d="m558.28 114.39l0.51 0.74c2.41 15.89-12.87 59.54-20.78 74.49-0.44-0.09-0.13 0-0.75-0.59 0.44-17.2 11.17-60.82 21.02-74.64z"/>
	<path class="s19" d="m315.29 242.92c-8.35-27.72 12.41-62.77 42.84-63.41 20.65-0.44 26.47 14.57 26.31 32.47-4.42 14.11-9.76 22.91-20.05 33.63l-2.71 2.58c-8.51-3.57-21.6-2.33-25.43-5.51-6.89 2.47-7.11 3.94-14.53 3.9-2.01-1.56-3.88-3.38-6.43-3.66z"/>
	<path class="s20" d="m363.4 205.71c3.98-0.79 17.8 3.36 21.04 6.27-4.41 14.11-9.76 22.91-20.05 33.63l-2.71 2.58c-8.51-3.57-21.6-2.33-25.43-5.51l0.49-0.82 2.1-1.2c14.37-15.6 18.52-13.34 24.56-34.95z"/>
	<path class="s7" d="m338.84 240.66c7.84-0.31 19.61-1.13 25.55 4.95l-2.71 2.58c-8.51-3.57-21.6-2.33-25.43-5.51l0.49-0.82z"/>
	<path class="s0" d="m336.74 241.86c-9.53-21.55 17.91-57.3 26.66-36.15-6.04 21.61-10.19 19.35-24.56 34.95z"/>
	<path class="s0" d="m355.77 185.12c3.07-0.2 11.46-0.92 12.02 2.85-1.84 1.62-7.5-0.12-10.17 0.05-14 0.92-23.26 10.31-29.17 22.46-1.2 2.79-2.33 5.82-4.07 8.27l-0.88-0.22c-1.51-3.97 3.6-13.81 5.99-17.26 6.56-9.46 15.12-14.1 26.28-16.15z"/>
	<path class="s1" d="m859.62 199.12c-4.76-6.09-10.23-12.66-7.37-21.03 2.21-7.21 11.91-11.52 18.77-8.58 5.55 2.38 8.66 11.81 10.92 17.08 2.34 1.2 4.51 1.79 7.01 2.58-0.83 3.7-2.07 7.97-0.2 11.3 1.7 1.07 0.78 0.78 2.88 0.78 3.68-3.58-1.91-10.1 5.28-18.48 3.2-3.69 7.76-5.92 12.63-6.17 6.24-0.37 10.01 1.9 14.45 5.7 1.69 2.09 1.96 2.57 3.11 5.02 1.36 5.78 2.15 12.04-1.48 17.09-7.59 10.55-21.51 10.54-29.38 0.84q-9.07 0.35-18.14 0.15l-0.74 7.03c-4.16 0.31-10.48 4.21-14.84 5.63-2.89 0.95-5.38 1.3-8.03 2.08 1.87-6.69 3.51-14.2 5.13-21.02z"/>
	<path class="s0" d="m909.85 183.17l5.86 1.39c0.64 0.59 3.93 3.74 4.41 4.07 2.66 6.44 1.55 13.35-5.64 15.91-2.93 1.03-6.15 0.84-8.95-0.52-5.43-2.69-7.1-9.37-4.48-14.77 1.68-3.45 5.36-4.9 8.8-6.08z"/>
	<path class="s6" d="m923.99 182.3c1.69 2.09 1.96 2.57 3.11 5.02-1.67 0.26-5.56 0.78-6.98 1.31-0.48-0.33-3.76-3.48-4.41-4.07 2.94-0.32 6.17-0.28 8.28-2.26z"/>
	<path class="s6" d="m867.86 182.06l0.34 0.48c-1.91 3.03-9.62 6.24-13.01 7.49-0.44-0.86-0.29-0.37-0.31-1.51 2.41-2.88 9.22-5.03 12.98-6.46z"/>
	<path class="s2" d="m403.06 280.5c10.91-3.67 13.61-6.34 23.25-12.97l0.99 2.02c-3.62 13.19-5.49 26.09-7.6 39.59-1.11 7.09-1.61 13.38-5.21 19.73 8.13 8.77 13.64 19.54 3.07 29.82-7.28 7.07-21.85 5.5-27.81-2.53-7.69-10.2-1.37-19.74 6.31-26.95-0.66-13.44 1.72-23.69 4.49-36.71 0.47-2.23 2.32-10.08 2.51-12z"/>
	<path class="s0" d="m403.36 334.24c6.13-0.77 11.73 3.56 12.53 9.69 0.79 6.12-3.52 11.74-9.64 12.56-6.16 0.83-11.82-3.51-12.62-9.67-0.8-6.16 3.56-11.8 9.73-12.58z"/>
	<path class="s0" d="m196.14 118.15c-3.23-1.76-5.84-3.13-8.35-5.95-3.11-3.44-4.63-8.02-4.19-12.64 0.53-5.33 3.17-10.23 7.32-13.61 8.65-7.03 19.13-4.64 25.69 3.88 7.32 13.47 2.25 24.37-12.16 28.99-2.47-0.48-4.52-0.97-6.95-1.59z"/>
	<path class="s6" d="m196.14 118.15c-3.23-1.76-5.84-3.13-8.35-5.95-3.11-3.44-4.63-8.02-4.19-12.64 0.53-5.33 3.17-10.23 7.32-13.61 8.65-7.03 19.13-4.64 25.69 3.88l-4.92 4.81c-2.73-3.01-5.2-4.93-9.51-5-2.78-0.05-5.47 1.02-7.46 2.96-5.25 5.11-3.74 12.04 0.87 16.95-1.12 3.49-0.39 4.92 1.91 7.68z"/>
	<path class="s3" d="m216.61 89.83c7.32 13.47 2.25 24.37-12.16 28.99-2.47-0.48-4.52-0.97-6.95-1.59-2.3-2.76-3.03-4.19-1.91-7.68 0.67 0.38 1.4 0.8 2.11 1.1 2.78 1.2 5.92 1.24 8.73 0.13 2.82-1.14 5.03-3.4 6.1-6.24 1.43-3.81 0.66-6.37-0.84-9.9z"/>
	<path class="s6" d="m196.14 118.15l1.36-0.92c2.43 0.62 4.48 1.11 6.95 1.59 0.47 2.11 1.64 4.14 2.61 6.11l-0.68 6.32q-3.42 14.81-6.12 29.77l-0.78 0.2c-5.51-4.15-11.52-7.87-18.59-8.29q2.85-13.16 5.13-26.42c0.68-0.87 1.78-1.94 2.56-2.76 2.17-1.86 5.12-3.61 7.56-5.6z"/>
	<path class="s4" d="m196.14 118.15l1.36-0.92c2.43 0.62 4.48 1.11 6.95 1.59 0.47 2.11 1.64 4.14 2.61 6.11l-0.68 6.32-0.93-0.25c-4.56-7.19-9.09-6.79-16.87-7.25 2.17-1.86 5.12-3.61 7.56-5.6z"/>
	<path class="s1" d="m188.58 123.75c7.78 0.46 12.31 0.06 16.87 7.25-3.24 0-15.52-3.53-19.43-4.49 0.68-0.87 1.78-1.94 2.56-2.76z"/>
	<path class="s3" d="m97.47 229.9c6.4 1.11 16.43 3.19 21.46 7.63l-0.52 2.35c0 5.77-0.36 10.69 4.08 15.12q0.93 0.92 1.91 1.79c-8.73 1.15-17.76 1.28-19.77 11.83-9.77-12.58-10.85-22.09-7.32-37.28z"/>
	<path class="s2" d="m97.47 229.9c6.4 1.11 16.43 3.19 21.46 7.63l-0.52 2.35c-7.81-0.33-14.8-4.23-21.1-8.54z"/>
</svg>